{
    "asset" : {
        "generator" : "Khronos glTF Blender I/O v1.4.40",
        "version" : "2.0"
    },
    "scene" : 0,
    "scenes" : [
        {
            "name" : "Scene",
            "nodes" : [
                0
            ]
        }
    ],
    "nodes" : [
        {
            "mesh" : 0,
            "name" : "BeerCan.002",
            "rotation" : [
                0.1650708168745041,
                0.6875693798065186,
                -0.16507083177566528,
                0.6875693202018738
            ],
            "scale" : [
                0.999996542930603,
                1,
                1
            ],
            "translation" : [
                -0.0013782286550849676,
                0.08910113573074341,
                7.428072422044352e-05
            ]
        }
    ],
    "materials" : [
        {
            "doubleSided" : true,
            "name" : "BeerCanLabel",
            "pbrMetallicRoughness" : {
                "baseColorTexture" : {
                    "index" : 0,
                    "texCoord" : 0
                },
                "metallicFactor" : 0,
                "roughnessFactor" : 0.5
            }
        },
        {
            "doubleSided" : true,
            "name" : "BeerCan",
            "pbrMetallicRoughness" : {
                "baseColorFactor" : [
                    1,
                    0.9527133703231812,
                    0.8941043615341187,
                    1
                ],
                "roughnessFactor" : 0.20165744423866272
            }
        }
    ],
    "meshes" : [
        {
            "name" : "Cylinder.003",
            "primitives" : [
                {
                    "attributes" : {
                        "POSITION" : 0,
                        "NORMAL" : 1,
                        "TEXCOORD_0" : 2
                    },
                    "indices" : 3,
                    "material" : 0
                },
                {
                    "attributes" : {
                        "POSITION" : 4,
                        "NORMAL" : 5,
                        "TEXCOORD_0" : 6
                    },
                    "indices" : 7,
                    "material" : 1
                }
            ]
        }
    ],
    "textures" : [
        {
            "sampler" : 0,
            "source" : 0
        }
    ],
    "images" : [
        {
            "bufferView" : 4,
            "mimeType" : "image/png",
            "name" : "Placeholder_Label"
        }
    ],
    "accessors" : [
        {
            "bufferView" : 0,
            "componentType" : 5126,
            "count" : 66,
            "max" : [
                0.030941566452383995,
                0.0278998464345932,
                0.029392311349511147
            ],
            "min" : [
                -0.0282126497477293,
                -0.058878254145383835,
                -0.029637273401021957
            ],
            "type" : "VEC3"
        },
        {
            "bufferView" : 1,
            "componentType" : 5126,
            "count" : 66,
            "type" : "VEC3"
        },
        {
            "bufferView" : 2,
            "componentType" : 5126,
            "count" : 66,
            "type" : "VEC2"
        },
        {
            "bufferView" : 3,
            "componentType" : 5123,
            "count" : 192,
            "type" : "SCALAR"
        },
        {
            "bufferView" : 5,
            "componentType" : 5126,
            "count" : 2237,
            "max" : [
                0.030941566452383995,
                0.04656495526432991,
                0.029392311349511147
            ],
            "min" : [
                -0.0282126497477293,
                -0.076055146753788,
                -0.029637273401021957
            ],
            "type" : "VEC3"
        },
        {
            "bufferView" : 6,
            "componentType" : 5126,
            "count" : 2237,
            "type" : "VEC3"
        },
        {
            "bufferView" : 7,
            "componentType" : 5126,
            "count" : 2237,
            "type" : "VEC2"
        },
        {
            "bufferView" : 8,
            "componentType" : 5123,
            "count" : 10416,
            "type" : "SCALAR"
        }
    ],
    "bufferViews" : [
        {
            "buffer" : 0,
            "byteLength" : 792,
            "byteOffset" : 0
        },
        {
            "buffer" : 0,
            "byteLength" : 792,
            "byteOffset" : 792
        },
        {
            "buffer" : 0,
            "byteLength" : 528,
            "byteOffset" : 1584
        },
        {
            "buffer" : 0,
            "byteLength" : 384,
            "byteOffset" : 2112
        },
        {
            "buffer" : 0,
            "byteLength" : 123117,
            "byteOffset" : 2496
        },
        {
            "buffer" : 0,
            "byteLength" : 26844,
            "byteOffset" : 125616
        },
        {
            "buffer" : 0,
            "byteLength" : 26844,
            "byteOffset" : 152460
        },
        {
            "buffer" : 0,
            "byteLength" : 17896,
            "byteOffset" : 179304
        },
        {
            "buffer" : 0,
            "byteLength" : 20832,
            "byteOffset" : 197200
        }
    ],
    "samplers" : [
        {
            "magFilter" : 9729,
            "minFilter" : 9986
        }
    ],
    "buffers" : [
        {
            "byteLength" : 218032,
            "uri" : "data:application/octet-stream;base64,"
        }
    ]
}
