{
    "asset" : {
        "generator" : "Khronos glTF Blender I/O v1.4.40",
        "version" : "2.0"
    },
    "scene" : 0,
    "scenes" : [
        {
            "name" : "Scene",
            "nodes" : [
                1
            ]
        }
    ],
    "nodes" : [
        {
            "mesh" : 0,
            "name" : "BeerCanBase.003",
            "translation" : [
                9.026378393173218e-05,
                -0.10547197610139847,
                0.002011871198192239
            ]
        },
        {
            "children" : [
                0
            ],
            "mesh" : 1,
            "name" : "BeerCanAngle",
            "rotation" : [
                0.175062894821167,
                0.9845572710037231,
                0,
                -1.604047383807483e-07
            ],
            "scale" : [
                1.1355130672454834,
                1.1355130672454834,
                1.1355130672454834
            ],
            "translation" : [
                0,
                0.22128699719905853,
                0
            ]
        }
    ],
    "materials" : [
        {
            "doubleSided" : true,
            "name" : "BeerCan",
            "pbrMetallicRoughness" : {
                "baseColorFactor" : [
                    0.7612788677215576,
                    0.7255185842514038,
                    0.6811805963516235,
                    1
                ],
                "metallicFactor" : 0.7734806537628174,
                "roughnessFactor" : 0.24585634469985962
            }
        },
        {
            "doubleSided" : true,
            "name" : "BeerCanLabel",
            "pbrMetallicRoughness" : {
                "baseColorTexture" : {
                    "index" : 0,
                    "texCoord" : 0
                },
                "metallicFactor" : 0,
                "roughnessFactor" : 0.5
            }
        }
    ],
    "meshes" : [
        {
            "name" : "Cube.003",
            "primitives" : [
                {
                    "attributes" : {
                        "POSITION" : 0,
                        "NORMAL" : 1,
                        "TEXCOORD_0" : 2
                    },
                    "indices" : 3,
                    "material" : 0
                }
            ]
        },
        {
            "name" : "Cylinder.006",
            "primitives" : [
                {
                    "attributes" : {
                        "POSITION" : 4,
                        "NORMAL" : 5,
                        "TEXCOORD_0" : 6
                    },
                    "indices" : 7,
                    "material" : 0
                },
                {
                    "attributes" : {
                        "POSITION" : 8,
                        "NORMAL" : 9,
                        "TEXCOORD_0" : 10
                    },
                    "indices" : 11,
                    "material" : 1
                }
            ]
        }
    ],
    "textures" : [
        {
            "sampler" : 0,
            "source" : 0
        }
    ],
    "images" : [
        {
            "bufferView" : 12,
            "mimeType" : "image/jpeg",
            "name" : "logical-conclusion"
        }
    ],
    "accessors" : [
        {
            "bufferView" : 0,
            "componentType" : 5126,
            "count" : 60,
            "max" : [
                0.006739945150911808,
                0.14700673520565033,
                0.015369780361652374
            ],
            "min" : [
                -0.006739946082234383,
                0.14054419100284576,
                -0.005819966085255146
            ],
            "type" : "VEC3"
        },
        {
            "bufferView" : 1,
            "componentType" : 5126,
            "count" : 60,
            "type" : "VEC3"
        },
        {
            "bufferView" : 2,
            "componentType" : 5126,
            "count" : 60,
            "type" : "VEC2"
        },
        {
            "bufferView" : 3,
            "componentType" : 5123,
            "count" : 348,
            "type" : "SCALAR"
        },
        {
            "bufferView" : 4,
            "componentType" : 5126,
            "count" : 5146,
            "max" : [
                0.029706787317991257,
                0.03873152285814285,
                0.031628724187612534
            ],
            "min" : [
                -0.029491286724805832,
                -0.09238199144601822,
                -0.027631744742393494
            ],
            "type" : "VEC3"
        },
        {
            "bufferView" : 5,
            "componentType" : 5126,
            "count" : 5146,
            "type" : "VEC3"
        },
        {
            "bufferView" : 6,
            "componentType" : 5126,
            "count" : 5146,
            "type" : "VEC2"
        },
        {
            "bufferView" : 7,
            "componentType" : 5123,
            "count" : 26112,
            "type" : "SCALAR"
        },
        {
            "bufferView" : 8,
            "componentType" : 5126,
            "count" : 353,
            "max" : [
                0.029575694352388382,
                0.020623259246349335,
                0.03149784728884697
            ],
            "min" : [
                -0.029387375339865685,
                -0.07293479144573212,
                -0.02751874178647995
            ],
            "type" : "VEC3"
        },
        {
            "bufferView" : 9,
            "componentType" : 5126,
            "count" : 353,
            "type" : "VEC3"
        },
        {
            "bufferView" : 10,
            "componentType" : 5126,
            "count" : 353,
            "type" : "VEC2"
        },
        {
            "bufferView" : 11,
            "componentType" : 5123,
            "count" : 1536,
            "type" : "SCALAR"
        }
    ],
    "bufferViews" : [
        {
            "buffer" : 0,
            "byteLength" : 720,
            "byteOffset" : 0
        },
        {
            "buffer" : 0,
            "byteLength" : 720,
            "byteOffset" : 720
        },
        {
            "buffer" : 0,
            "byteLength" : 480,
            "byteOffset" : 1440
        },
        {
            "buffer" : 0,
            "byteLength" : 696,
            "byteOffset" : 1920
        },
        {
            "buffer" : 0,
            "byteLength" : 61752,
            "byteOffset" : 2616
        },
        {
            "buffer" : 0,
            "byteLength" : 61752,
            "byteOffset" : 64368
        },
        {
            "buffer" : 0,
            "byteLength" : 41168,
            "byteOffset" : 126120
        },
        {
            "buffer" : 0,
            "byteLength" : 52224,
            "byteOffset" : 167288
        },
        {
            "buffer" : 0,
            "byteLength" : 4236,
            "byteOffset" : 219512
        },
        {
            "buffer" : 0,
            "byteLength" : 4236,
            "byteOffset" : 223748
        },
        {
            "buffer" : 0,
            "byteLength" : 2824,
            "byteOffset" : 227984
        },
        {
            "buffer" : 0,
            "byteLength" : 3072,
            "byteOffset" : 230808
        },
        {
            "buffer" : 0,
            "byteLength" : 72835,
            "byteOffset" : 233880
        }
    ],
    "samplers" : [
        {
            "magFilter" : 9729,
            "minFilter" : 9986
        }
    ],
    "buffers" : [
        {
            "byteLength" : 306716,
            "uri" : "data:application/octet-stream;base64,"
        }
    ]
}
